<mxfile host="app.diagrams.net" modified="2022-10-16T14:20:04.286Z" agent="5.0 (Windows NT 10.0; Win64; x64) AppleWebKit/537.36 (KHTML, like Gecko) Chrome/106.0.0.0 Safari/537.36" etag="aCXA1Lo34Rxbr6q7dZjs" version="20.4.1" type="github">
  <diagram id="uXwy7UbzzSJ_gQlFxIED" name="第 1 页">
    <mxGraphModel dx="1422" dy="762" grid="1" gridSize="10" guides="1" tooltips="1" connect="1" arrows="1" fold="1" page="1" pageScale="1" pageWidth="827" pageHeight="1169" math="0" shadow="0">
      <root>
        <mxCell id="0" />
        <mxCell id="1" parent="0" />
        <mxCell id="TLRT40l-uYxd2xCMNAhG-6" style="edgeStyle=orthogonalEdgeStyle;rounded=0;orthogonalLoop=1;jettySize=auto;html=1;fontColor=#5C5C5C;" edge="1" parent="1" source="TLRT40l-uYxd2xCMNAhG-3" target="TLRT40l-uYxd2xCMNAhG-4">
          <mxGeometry relative="1" as="geometry">
            <Array as="points">
              <mxPoint x="400" y="190" />
              <mxPoint x="198" y="190" />
            </Array>
          </mxGeometry>
        </mxCell>
        <mxCell id="TLRT40l-uYxd2xCMNAhG-7" style="edgeStyle=orthogonalEdgeStyle;rounded=0;orthogonalLoop=1;jettySize=auto;html=1;fontColor=#5C5C5C;" edge="1" parent="1" source="TLRT40l-uYxd2xCMNAhG-3" target="TLRT40l-uYxd2xCMNAhG-5">
          <mxGeometry relative="1" as="geometry">
            <Array as="points">
              <mxPoint x="400" y="190" />
              <mxPoint x="598" y="190" />
            </Array>
          </mxGeometry>
        </mxCell>
        <mxCell id="TLRT40l-uYxd2xCMNAhG-3" value="" style="ellipse;whiteSpace=wrap;html=1;aspect=fixed;fillColor=#21C0A5;strokeColor=#006658;fontColor=#5C5C5C;" vertex="1" parent="1">
          <mxGeometry x="370" y="100" width="55" height="55" as="geometry" />
        </mxCell>
        <mxCell id="TLRT40l-uYxd2xCMNAhG-4" value="" style="ellipse;whiteSpace=wrap;html=1;aspect=fixed;fillColor=#21C0A5;strokeColor=#006658;fontColor=#5C5C5C;" vertex="1" parent="1">
          <mxGeometry x="170" y="260" width="55" height="55" as="geometry" />
        </mxCell>
        <mxCell id="TLRT40l-uYxd2xCMNAhG-14" style="edgeStyle=orthogonalEdgeStyle;rounded=0;orthogonalLoop=1;jettySize=auto;html=1;fontSize=20;fontColor=#5C5C5C;" edge="1" parent="1" source="TLRT40l-uYxd2xCMNAhG-5" target="TLRT40l-uYxd2xCMNAhG-9">
          <mxGeometry relative="1" as="geometry">
            <Array as="points">
              <mxPoint x="598" y="340" />
              <mxPoint x="488" y="340" />
            </Array>
          </mxGeometry>
        </mxCell>
        <mxCell id="TLRT40l-uYxd2xCMNAhG-15" style="edgeStyle=orthogonalEdgeStyle;rounded=0;orthogonalLoop=1;jettySize=auto;html=1;fontSize=20;fontColor=#5C5C5C;" edge="1" parent="1" source="TLRT40l-uYxd2xCMNAhG-5" target="TLRT40l-uYxd2xCMNAhG-8">
          <mxGeometry relative="1" as="geometry" />
        </mxCell>
        <mxCell id="TLRT40l-uYxd2xCMNAhG-16" style="edgeStyle=orthogonalEdgeStyle;rounded=0;orthogonalLoop=1;jettySize=auto;html=1;fontSize=20;fontColor=#5C5C5C;" edge="1" parent="1" source="TLRT40l-uYxd2xCMNAhG-5" target="TLRT40l-uYxd2xCMNAhG-10">
          <mxGeometry relative="1" as="geometry">
            <Array as="points">
              <mxPoint x="598" y="340" />
              <mxPoint x="708" y="340" />
            </Array>
          </mxGeometry>
        </mxCell>
        <mxCell id="TLRT40l-uYxd2xCMNAhG-5" value="" style="ellipse;whiteSpace=wrap;html=1;aspect=fixed;fillColor=#f8cecc;strokeColor=#b85450;" vertex="1" parent="1">
          <mxGeometry x="570" y="260" width="55" height="55" as="geometry" />
        </mxCell>
        <mxCell id="TLRT40l-uYxd2xCMNAhG-8" value="" style="ellipse;whiteSpace=wrap;html=1;aspect=fixed;fillColor=#f8cecc;strokeColor=#b85450;" vertex="1" parent="1">
          <mxGeometry x="570" y="380" width="55" height="55" as="geometry" />
        </mxCell>
        <mxCell id="TLRT40l-uYxd2xCMNAhG-9" value="" style="ellipse;whiteSpace=wrap;html=1;aspect=fixed;fillColor=#f8cecc;strokeColor=#b85450;" vertex="1" parent="1">
          <mxGeometry x="460" y="380" width="55" height="55" as="geometry" />
        </mxCell>
        <mxCell id="TLRT40l-uYxd2xCMNAhG-10" value="" style="ellipse;whiteSpace=wrap;html=1;aspect=fixed;fillColor=#f8cecc;strokeColor=#b85450;" vertex="1" parent="1">
          <mxGeometry x="680" y="380" width="55" height="55" as="geometry" />
        </mxCell>
        <mxCell id="TLRT40l-uYxd2xCMNAhG-13" value="Root Fiber" style="text;html=1;resizable=0;autosize=1;align=center;verticalAlign=middle;points=[];fillColor=none;strokeColor=none;rounded=0;fontColor=#1A1A1A;fontSize=20;fontStyle=1" vertex="1" parent="1">
          <mxGeometry x="340" y="50" width="120" height="40" as="geometry" />
        </mxCell>
        <mxCell id="TLRT40l-uYxd2xCMNAhG-17" value="Current Tree" style="text;html=1;resizable=0;autosize=1;align=center;verticalAlign=middle;points=[];fillColor=none;strokeColor=none;rounded=0;fontColor=#1A1A1A;fontSize=20;fontStyle=1" vertex="1" parent="1">
          <mxGeometry x="127.5" y="140" width="140" height="40" as="geometry" />
        </mxCell>
        <mxCell id="TLRT40l-uYxd2xCMNAhG-18" value="WorkInProgressTree" style="text;html=1;resizable=0;autosize=1;align=center;verticalAlign=middle;points=[];fillColor=none;strokeColor=none;rounded=0;fontColor=#1A1A1A;fontSize=20;fontStyle=1" vertex="1" parent="1">
          <mxGeometry x="487.5" y="140" width="220" height="40" as="geometry" />
        </mxCell>
      </root>
    </mxGraphModel>
  </diagram>
</mxfile>
